<svg width="570" height="80" viewBox="0 0 570 80" fill="none" xmlns="http://www.w3.org/2000/svg">
<g clip-path="url(#clip0_34_2019)">
<path d="M40.0256 4.24805L7.94959 27.2033C1.22866 32.0131 -0.304664 41.3385 4.52481 48.0321L4.54241 48.0565C9.37188 54.7501 18.7353 56.2772 25.4563 51.4674L57.5323 28.5121C64.2532 23.7023 65.7866 14.3769 60.9571 7.68329L60.9395 7.6589C56.11 0.965303 46.7466 -0.561787 40.0256 4.24805Z" fill="#EA4335"/>
<path d="M16.7466 55.7186C15.8541 55.7186 14.9556 55.6465 14.0571 55.4994C9.72432 54.7937 5.92824 52.4484 3.36838 48.899L3.35029 48.875C-1.93828 41.548 -0.252813 31.2991 7.10717 26.035L39.1823 3.07793C42.7462 0.52848 47.0941 -0.486497 51.4269 0.219182C55.7596 0.924861 59.5557 3.27012 62.1156 6.81953L62.1306 6.84055C64.6935 10.393 65.7157 14.7261 65.0041 19.0383C64.2925 23.3504 61.9407 27.1341 58.3768 29.6835L26.3016 52.6376C23.4764 54.6586 20.1598 55.7156 16.7466 55.7156V55.7186ZM8.79565 28.3743C2.73219 32.7135 1.34522 41.1546 5.70211 47.1904L5.7202 47.2144C7.8308 50.1392 10.9575 52.0701 14.5275 52.6526C18.0944 53.2352 21.6794 52.3974 24.6161 50.2954L56.6913 27.3413C59.6281 25.2393 61.5668 22.1253 62.1517 18.5698C62.7367 15.0144 61.8955 11.447 59.7849 8.52217L59.7698 8.50115C57.6562 5.57333 54.5294 3.64248 50.9625 3.05992C47.3956 2.47736 43.8106 3.31516 40.8738 5.41718L8.79565 28.3743Z" fill="#1E1E1E"/>
<path d="M4.54717 30.6201L4.52957 30.6444C-0.299902 37.338 1.23342 46.6634 7.95435 51.4733L40.0304 74.4285C46.7513 79.2384 56.1148 77.7113 60.9442 71.0177L60.9618 70.9933C65.7913 64.2997 64.258 54.9743 57.5371 50.1645L25.461 27.2092C18.7401 22.3994 9.37664 23.9265 4.54717 30.6201Z" fill="#4285F4"/>
<path d="M48.7374 78.6788C45.3273 78.6788 42.0076 77.6218 39.1824 75.6008L7.10727 52.6437C-0.249699 47.3766 -1.93517 37.1308 3.3534 29.8037L3.37451 29.7767C5.93437 26.2303 9.73045 23.885 14.0602 23.1794C18.393 22.4737 22.7408 23.4887 26.3047 26.0411L58.3799 48.9952C61.9438 51.5447 64.2986 55.3253 65.0072 59.6405C65.7158 63.9556 64.6966 68.2858 62.1338 71.8352L62.1157 71.8592C59.5558 75.4086 55.7597 77.7539 51.427 78.4596C50.5284 78.6067 49.6299 78.6788 48.7374 78.6788ZM5.70221 31.4854C1.34531 37.5242 2.7353 45.9653 8.79575 50.3015L40.8709 73.2556C43.8077 75.3576 47.3897 76.1954 50.9596 75.6128C54.5295 75.0303 57.6563 73.0994 59.7669 70.1746L59.785 70.1506C61.8956 67.2258 62.7368 63.6583 62.1518 60.1029C61.5669 56.5475 59.6282 53.4335 56.6914 51.3315L24.6162 28.3774C21.6795 26.2753 18.0975 25.4375 14.5276 26.0201C10.9576 26.6027 7.8309 28.5335 5.7203 31.4583L5.70221 31.4824V31.4854Z" fill="#1E1E1E"/>
<path d="M117.465 27.1884L85.3889 50.1436C78.668 54.9535 77.1347 64.2788 81.9641 70.9724L81.9817 70.9968C86.8112 77.6904 96.1747 79.2175 102.896 74.4077L134.972 51.4524C141.693 46.6426 143.226 37.3172 138.396 30.6236L138.379 30.5992C133.549 23.9056 124.186 22.3785 117.465 27.1884Z" fill="#F9AB00"/>
<path d="M94.1847 78.6577C93.2922 78.6577 92.3937 78.5856 91.4952 78.4385C87.1624 77.7328 83.3663 75.3875 80.8065 71.8381L80.7914 71.8171C75.5028 64.484 77.1853 54.2382 84.5453 48.9741L116.62 26.02C120.184 23.4675 124.532 22.4526 128.865 23.1582C133.198 23.8639 136.994 26.2092 139.554 29.7586L139.572 29.7826C144.86 37.1097 143.175 47.3585 135.815 52.6226L103.74 75.5767C100.915 77.5976 97.5978 78.6547 94.1847 78.6547V78.6577ZM86.2337 51.3133C80.1703 55.6525 78.7833 64.0936 83.1402 70.1295L83.1553 70.1505C85.2689 73.0783 88.3956 75.0092 91.9625 75.5917C95.5294 76.1743 99.1145 75.3365 102.051 73.2344L134.126 50.2803C140.19 45.9412 141.577 37.5 137.22 31.4642L137.202 31.4402C135.091 28.5154 131.965 26.5845 128.395 26.002C124.828 25.4194 121.243 26.2572 118.306 28.3592L86.2307 51.3133H86.2337Z" fill="#1E1E1E"/>
<path d="M81.9766 7.66865L81.959 7.69303C77.1295 14.3866 78.6629 23.712 85.3838 28.5218L117.46 51.4771C124.181 56.2869 133.544 54.7599 138.374 48.0663L138.391 48.0419C143.221 41.3483 141.687 32.0229 134.967 27.2131L102.89 4.2578C96.1695 -0.552038 86.8061 0.975048 81.9766 7.66865Z" fill="#34A853"/>
<path d="M126.169 55.7277C122.759 55.7277 119.439 54.6707 116.614 52.6497L84.5391 29.6956C80.9752 27.1462 78.6204 23.3655 77.9118 19.0504C77.2033 14.7382 78.2224 10.4081 80.7823 6.85864L80.8004 6.83462C86.0919 -0.498439 96.3796 -2.17706 103.737 3.09001L135.812 26.0441C139.376 28.5966 141.73 32.3742 142.439 36.6894C143.148 41.0045 142.129 45.3347 139.566 48.8841C136.988 52.4575 133.192 54.8028 128.859 55.5085C127.96 55.6556 127.062 55.7277 126.169 55.7277ZM94.1665 2.90083C89.9513 2.90083 85.7965 4.84971 83.1552 8.51023L83.1371 8.53426C81.0265 11.4591 80.1853 15.0265 80.7702 18.5819C81.3551 22.1373 83.2939 25.2513 86.2306 27.3534L118.306 50.3075C121.243 52.4095 124.825 53.2473 128.394 52.6647C131.964 52.0822 135.091 50.1513 137.202 47.2265C139.33 44.2777 140.169 40.7102 139.587 37.1548C139.002 33.5994 137.063 30.4854 134.126 28.3834L102.051 5.42927C99.6662 3.72062 96.9043 2.90083 94.1695 2.90083H94.1665Z" fill="#1E1E1E"/>
<path fill-rule="evenodd" clip-rule="evenodd" d="M213.913 5.55841C207.913 2.25523 200.797 0.633667 192.536 0.633667H166.183V78.2584H192.536C200.797 78.2584 207.943 76.6368 213.913 73.3937C219.913 70.1506 224.496 65.5862 227.753 59.7305C230.979 53.8749 232.607 47.1184 232.607 39.461C232.607 31.8037 230.979 25.0472 227.753 19.2516C224.527 13.426 219.913 8.89162 213.913 5.58844V5.55841ZM214.908 52.5536C212.979 56.3073 210.114 59.2201 206.255 61.2921C202.395 63.364 197.631 64.385 191.873 64.385H180.867V14.507H191.873C197.601 14.507 202.395 15.528 206.255 17.6C210.114 19.672 212.979 22.5548 214.908 26.2784C216.838 30.0019 217.803 34.3862 217.803 39.461C217.803 44.5359 216.838 48.8301 214.908 52.5837V52.5536ZM283.201 25.0172C279.131 22.4947 274.126 21.2335 268.186 21.2335C262.246 21.2335 257.784 22.5848 253.502 25.2874C249.221 27.99 245.844 31.5935 243.371 36.0678C240.899 40.5421 239.663 45.4368 239.663 50.6919C239.663 55.9469 240.929 61.3521 243.432 65.7664C245.934 70.1806 249.371 73.634 253.774 76.1864C258.176 78.7088 263.151 79.9701 268.729 79.9701C274.307 79.9701 280.096 78.6488 284.287 76.0062C288.508 73.3637 291.915 69.7602 294.508 65.2259L282.96 59.5804C281.664 61.8326 279.824 63.6944 277.503 65.1658C275.181 66.6372 272.317 67.3879 268.91 67.3879C265.502 67.3879 263.362 66.7273 261.01 65.376C258.658 64.0247 256.789 62.1029 255.402 59.5204C254.527 57.8988 253.954 56.007 253.653 53.935H295.262C295.322 53.5746 295.413 52.9741 295.473 52.1333C295.533 51.2925 295.594 50.3015 295.594 49.1604C295.594 44.0255 294.538 39.341 292.428 35.1069C290.317 30.8728 287.242 27.5096 283.171 24.9571L283.201 25.0172ZM281.875 43.8453H254.235C254.534 42.8355 254.863 41.8846 255.311 40.9925C256.608 38.4401 258.417 36.4281 260.708 34.9868C263 33.5454 265.503 32.8247 268.276 32.8247C271.05 32.8247 272.256 33.155 273.885 33.8457C275.513 34.5363 276.9 35.4072 278.076 36.4882C279.221 37.5692 280.156 38.7704 280.789 40.0616C281.453 41.3529 281.814 42.6141 281.875 43.8453ZM326.258 58.9498H327.132L341.394 22.9751H357.404L333.675 78.2583H319.504L296.016 22.9751H312.207L326.258 58.9498ZM364.43 78.2584H379.113V47.2385H410.35V33.3652H379.113V14.507H413.848V0.633667H364.43V78.2584ZM446.653 21.2335C452.593 21.2335 457.598 22.4947 461.668 25.0172L461.638 24.9571C465.708 27.5096 468.784 30.8728 470.895 35.1069C473.005 39.341 474.06 44.0255 474.06 49.1604C474.06 50.3015 474 51.2925 473.94 52.1333C473.88 52.9741 473.789 53.5746 473.729 53.935H432.12C432.421 56.007 432.994 57.8988 433.868 59.5204C435.255 62.1029 437.125 64.0247 439.477 65.376C441.828 66.7273 443.969 67.3879 447.376 67.3879C450.783 67.3879 453.648 66.6372 455.97 65.1658C458.291 63.6944 460.13 61.8326 461.427 59.5804L472.975 65.2259C470.382 69.7602 466.975 73.3637 462.754 76.0062C458.563 78.6488 452.773 79.9701 447.195 79.9701C441.617 79.9701 436.642 78.7088 432.24 76.1864C427.838 73.634 424.401 70.1806 421.898 65.7664C419.396 61.3521 418.129 55.9469 418.129 50.6919C418.129 45.4368 419.366 40.5421 421.838 36.0678C424.31 31.5935 427.687 27.99 431.969 25.2874C436.25 22.5848 440.713 21.2335 446.653 21.2335ZM432.732 43.8453H460.372C460.311 42.6141 459.95 41.3529 459.286 40.0616C458.653 38.7704 457.718 37.5692 456.573 36.4882C455.397 35.4072 454.01 34.5363 452.382 33.8457C450.753 33.155 449.547 32.8247 446.773 32.8247C443.999 32.8247 441.497 33.5454 439.205 34.9868C436.914 36.4281 435.105 38.4401 433.808 40.9925C433.36 41.8846 433.031 42.8355 432.732 43.8453ZM510.845 45.2866L502.674 43.3348C500.654 42.8243 498.905 42.0736 497.458 41.0526C496.011 40.0316 495.287 38.8605 495.287 37.4791C495.287 36.0978 496.011 35.0468 497.458 34.1159C498.905 33.185 500.865 32.7045 503.338 32.7045C505.81 32.7045 507.408 33.1249 509.277 33.9958C511.117 34.8666 512.624 36.3681 513.8 38.5602L525.981 33.2451C524.685 30.5124 522.936 28.2302 520.765 26.4585C518.594 24.6868 516.001 23.3655 513.046 22.4947C510.061 21.6239 506.745 21.2035 503.036 21.2035C499.327 21.2035 495.408 21.8941 492.091 23.2755C488.774 24.6568 486.181 26.5786 484.252 29.011C482.322 31.4733 481.357 34.3561 481.357 37.6893C481.357 41.0225 482.111 43.2747 483.588 45.5569C485.066 47.8391 487.026 49.7009 489.408 51.2023C491.79 52.6737 494.352 53.7248 497.036 54.2953L503.579 55.7067C505.116 56.007 506.594 56.3673 508.041 56.8478C509.488 57.3282 510.695 57.9588 511.69 58.7996C512.654 59.6405 513.167 60.7816 513.167 62.2229C513.167 63.6643 512.232 65.6462 510.333 66.397C508.433 67.1477 506.353 67.5381 504.031 67.5381C501.709 67.5381 498.724 66.8774 496.644 65.5261C494.533 64.1748 492.875 62.2229 491.639 59.6104L478.915 65.1357C479.94 67.8083 481.478 70.2707 483.588 72.4928C485.699 74.745 488.443 76.5467 491.82 77.9281C495.197 79.3094 499.267 80.0001 504.061 80.0001C508.855 80.0001 512.383 79.2493 515.941 77.7779C519.499 76.3065 522.333 74.2045 524.444 71.5019C526.554 68.7993 527.609 65.6162 527.609 62.0127C527.609 58.4093 526.223 54.5055 523.418 51.5927C520.614 48.7099 516.484 46.6079 510.966 45.3167L510.845 45.2866ZM562.646 65.7964C563.791 65.7964 564.877 65.6462 565.902 65.3159L565.932 65.2859C566.927 64.9556 568.193 64.325 569.731 63.3941V77.2674C568.133 77.838 566.505 78.2884 564.877 78.6187C564.379 78.7198 564.247 78.804 564.141 78.8722C563.9 79.0268 563.787 79.0992 559.811 79.0992C554.083 79.0992 549.56 77.4776 546.303 74.1744C543.047 70.9013 541.419 66.3669 541.419 60.5713V35.1068H531.74V22.9751H541.419V7.36011H555.681V22.9751H569.279V35.1068H555.681V57.9888C555.681 60.6614 556.223 62.6433 557.309 63.9045C558.394 65.1658 560.173 65.7964 562.646 65.7964Z" fill="#1E1E1E"/>
</g>
<defs>
<clipPath id="clip0_34_2019">
<rect width="569.462" height="80" fill="white" transform="translate(0.268799)"/>
</clipPath>
</defs>
</svg>
