<svg width="66" height="36" viewBox="0 0 66 36" fill="none" xmlns="http://www.w3.org/2000/svg">
<path d="M18.4239 1.92397L3.7691 12.4277C0.698468 14.6286 -0.00207162 18.8956 2.2044 21.9584L2.21244 21.9696C4.41891 25.0324 8.69685 25.7312 11.7675 23.5303L26.4223 13.0266C29.4929 10.8257 30.1934 6.55866 27.987 3.49584L27.9789 3.48469C25.7725 0.421867 21.4945 -0.27689 18.4239 1.92397Z" fill="#EA4335"/>
<path d="M7.78272 25.4715C5.44501 25.4715 3.14037 24.3888 1.67603 22.3552L1.66914 22.3456C-0.74708 18.9902 0.0215942 14.3019 3.3842 11.8932L18.0386 1.38863C19.6668 0.222064 21.6533 -0.242363 23.6328 0.0805374C25.6124 0.403438 27.3467 1.47657 28.5162 3.10069L28.5231 3.11031C30.9393 6.46573 30.1707 11.154 26.8081 13.5627L12.1537 24.0659C10.8312 25.014 9.2994 25.4702 7.78272 25.4702V25.4715ZM3.76991 12.4291L4.15562 12.965C1.38537 14.9505 0.751696 18.8129 2.74226 21.5747L2.74915 21.5844C3.95726 23.2607 5.8569 24.1524 7.78134 24.1524C9.03078 24.1524 10.2912 23.7773 11.3823 22.9955L26.0366 12.4923C28.8055 10.5068 29.4406 6.64435 27.45 3.88252L27.4431 3.8729C25.4512 1.10832 21.5803 0.476263 18.81 2.46176L4.15562 12.9636L3.76991 12.4277V12.4291Z" fill="#1E1E1E"/>
<path d="M2.21464 13.9899L2.2066 14.001C0.000126064 17.0638 0.700666 21.3309 3.7713 23.5318L18.4261 34.0355C21.4967 36.2364 25.7747 35.5376 27.9811 32.4748L27.9892 32.4636C30.1956 29.4008 29.4951 25.1338 26.4245 22.9329L11.7697 12.4292C8.69905 10.2283 4.42111 10.927 2.21464 13.9899Z" fill="#4285F4"/>
<path d="M22.4041 35.9816C20.8461 35.9816 19.3294 35.498 18.0387 34.5732L3.3843 24.0686C0.0230718 21.6586 -0.74698 16.9703 1.66924 13.6176L1.67889 13.6053C4.09373 10.254 8.79394 9.48589 12.1552 11.896L26.8095 22.3992C30.1708 24.8093 30.9408 29.4975 28.526 32.8502L28.5163 32.8625C27.3468 34.4853 25.6125 35.5584 23.6343 35.8813C23.2238 35.9486 22.8133 35.9816 22.4055 35.9816H22.4041ZM2.74236 14.3871C0.753174 17.1489 1.38685 21.0114 4.1571 22.9969L18.8115 33.5001C20.1532 34.4619 21.7898 34.8453 23.4208 34.5787C25.0518 34.3122 26.4803 33.4286 27.4446 32.0903L27.4542 32.078C29.4434 29.3175 28.8098 25.4537 26.0395 23.4696L11.3851 12.9664C8.61486 10.9809 4.74256 11.6143 2.75338 14.3761L2.74511 14.3885L2.74236 14.3871Z" fill="#1E1E1E"/>
<path d="M53.8041 12.4195L39.1493 22.9232C36.0787 25.1241 35.3782 29.3911 37.5847 32.4539L37.5927 32.4651C39.7992 35.5279 44.0771 36.2267 47.1477 34.0258L61.8025 23.5221C64.8732 21.3212 65.5737 17.0541 63.3672 13.9913L63.3592 13.9802C61.1527 10.9174 56.8748 10.2186 53.8041 12.4195Z" fill="#F9AB00"/>
<path d="M43.168 35.9719C42.7602 35.9719 42.3497 35.9389 41.9392 35.8715C39.9597 35.5486 38.2253 34.4755 37.0558 32.8514L37.0489 32.8418C34.6327 29.4864 35.4014 24.7981 38.764 22.3894L53.4183 11.8862C55.0466 10.7183 57.033 10.2538 59.0126 10.5767C60.9921 10.8996 62.7265 11.9728 63.896 13.5969L63.9029 13.6065C66.3191 16.9619 65.5504 21.6502 62.1878 24.0589L47.5334 34.5621C46.2427 35.4868 44.7274 35.9705 43.168 35.9705V35.9719ZM39.534 23.4598C36.7651 25.4453 36.1301 29.3077 38.1206 32.0696L38.1275 32.0792C39.0932 33.4189 40.5217 34.3024 42.1514 34.569C43.7824 34.8355 45.4189 34.4522 46.7606 33.4903L61.415 22.9871C64.1853 21.0016 64.819 17.1392 62.8284 14.3774L62.8215 14.3677C61.8558 13.028 60.4273 12.1445 58.7977 11.878C57.168 11.6114 55.5301 11.9948 54.1884 12.9566L39.534 23.4598Z" fill="#1E1E1E"/>
<path d="M37.5904 3.48914L37.5823 3.50029C35.3759 6.56311 36.0764 10.8302 39.147 13.031L53.8018 23.5348C56.8724 25.7356 61.1504 25.0369 63.3569 21.9741L63.3649 21.9629C65.5714 18.9001 64.8708 14.633 61.8002 12.4322L47.1454 1.92842C44.0748 -0.272439 39.7968 0.426316 37.5904 3.48914Z" fill="#34A853"/>
<path d="M57.7865 25.4755C56.2698 25.4755 54.7393 25.0193 53.4155 24.0712L38.7611 13.568C37.1328 12.4001 36.057 10.6715 35.7332 8.69702C35.4095 6.72252 35.8751 4.74115 37.0461 3.11702L37.0529 3.10603C39.4692 -0.248014 44.1694 -1.01611 47.532 1.39397L62.1864 11.8972C63.8146 13.0637 64.8905 14.7937 65.2142 16.7682C65.5379 18.7427 65.0723 20.724 63.9014 22.3482L63.8945 22.3578C62.4288 24.3927 60.1228 25.4755 57.7851 25.4755H57.7865ZM43.1638 1.30328C42.8276 1.30328 42.4888 1.33076 42.1513 1.38573C40.5202 1.65229 39.0917 2.5358 38.1274 3.87412L38.1192 3.88512C37.1549 5.22344 36.7705 6.8558 37.0378 8.48267C37.305 10.1095 38.1908 11.5344 39.5325 12.4963L54.1869 22.9995C55.5287 23.9613 57.1652 24.3447 58.7962 24.0781C60.4272 23.8115 61.8557 22.928 62.82 21.5897L62.8269 21.5801C63.7926 20.2404 64.1769 18.6066 63.9097 16.9811C63.6424 15.3543 62.7567 13.9294 61.4149 12.9676L46.7605 2.46435C45.6971 1.70176 44.449 1.30328 43.1638 1.30328Z" fill="#1E1E1E"/>
</svg>
